<?xml version="1.0" encoding="UTF-8" standalone="no"?>
<!-- Created with Inkscape (http://www.inkscape.org/) -->

<svg
   version="1.1"
   width="19.769028"
   height="19.810066"
   id="svg2"
   sodipodi:docname="King.svg"
   inkscape:version="1.3.2 (091e20e, 2023-11-25, custom)"
   xmlns:inkscape="http://www.inkscape.org/namespaces/inkscape"
   xmlns:sodipodi="http://sodipodi.sourceforge.net/DTD/sodipodi-0.dtd"
   xmlns="http://www.w3.org/2000/svg"
   xmlns:svg="http://www.w3.org/2000/svg">
  <defs
     id="defs6" />
  <g
     transform="matrix(0.1756509,0,0,0.1756509,-272.39356,-74.05116)"
     id="g70004">
    <g
       transform="matrix(3.677456,0,0,3.6776632,-684.87287,-2670.1206)"
       id="g67079">
      <path
         d="m 623.33,847.111 v -5.625"
         id="path67081"
         style="fill:#ffffff;stroke:#ffffff;stroke-width:1.6315;stroke-linecap:round" />
      <path
         d="m 623.33,858.648 c 0,0 4.775,-7.569 3.275,-10.569 0,0 -1.275,-2.431 -3.275,-2.431 -2,0 -3.275,2.569 -3.275,2.569 -1.5,3 3.275,10.431 3.275,10.431"
         id="path67083"
         style="fill:#ffffff;stroke:#ffffff;stroke-width:0.4079" />
      <path
         d="m 612.673,868.542 c 5.5,3.5 15.156,3.431 20.657,-0.069 l -0.069,-6.313 c 0,0 7.352,-3.607 4.352,-9.607 -4,-6.5 -13.5,-3.5 -16,4 l 1.717,1.921 v -3.5 c -3.637,-6.127 -10.734,-8.44 -14.42,-2.833 -3,6 3.626,10 3.626,10 z"
         id="path67085"
         style="fill:#ffffff;stroke:#ffffff;stroke-width:0.4079;stroke-linecap:round;stroke-linejoin:round" />
      <path
         d="m 620.83,843.486 h 5"
         id="path67087"
         style="fill:#ffffff;stroke:#ffffff;stroke-width:1.6315;stroke-linecap:round" />
    </g>
    <g
       transform="matrix(3.067229,0,0,3.067558,-329.09607,-2142.8556)"
       id="g67061">
      <path
         d="m 631.376,843.098 v -5.625"
         id="path67063"
         style="fill:none;stroke:#000000;stroke-width:0.489;stroke-linecap:round" />
      <path
         d="m 631.376,856.473 c 0,0 4.5,-7.5 3,-10.5 0,0 -1,-2.5 -3,-2.5 -2,0 -3,2.5 -3,2.5 -1.5,3 3,10.5 3,10.5"
         id="path67065"
         style="stroke:#000000;stroke-width:0.489" />
      <path
         d="m 620.376,868.473 c 5.5,3.5 15.5,3.5 21,0 v -7 c 0,0 9,-4.5 6,-10.5 -4,-6.5 -13.5,-3.5 -16,4 v 3.5 -3.5 c -3.5,-7.5 -13,-10.5 -16,-4 -3,6 5,10 5,10 z"
         id="path67067"
         style="stroke:#000000;stroke-width:0.489;stroke-linecap:round;stroke-linejoin:round" />
      <path
         d="m 628.876,839.473 h 5"
         id="path67069"
         style="fill:none;stroke:#000000;stroke-width:0.489;stroke-linecap:round" />
      <path
         d="m 620.376,860.973 c 5.5,-2.5 15.5,-2.5 21,0.5"
         id="path67071"
         style="fill:none;stroke:#ffffff;stroke-width:0.489;stroke-linecap:round" />
      <path
         d="m 620.376,868.473 c 5.5,-2.5 15.5,-2.5 21,0"
         id="path67073"
         style="fill:none;stroke:#ffffff;stroke-width:0.489;stroke-linecap:round;stroke-linejoin:round" />
      <path
         d="m 620.376,864.973 c 5.5,-2 15.5,-2 21,0"
         id="path67075"
         style="fill:none;stroke:#ffffff;stroke-width:0.489;stroke-linecap:round;stroke-linejoin:round" />
      <path
         d="m 640.876,860.973 c 0,0 8.5,-4 6.026,-9.653 -3.879,-5.85 -13.026,-1.847 -15.526,4.653 l 0.011,2.097 -0.011,-2.097 c -2.5,-6.5 -12.594,-10.503 -15.503,-4.653 -2.498,5.653 4.848,9 4.848,9"
         id="path67077"
         style="fill:none;stroke:#ffffff;stroke-width:0.489;stroke-linecap:round;stroke-linejoin:round" />
    </g>
  </g>
</svg>
