<?xml version="1.0" encoding="UTF-8" standalone="no"?>
<!-- Created with Inkscape (http://www.inkscape.org/) -->

<svg
   version="1.1"
   width="18.257629"
   height="18.377476"
   id="svg2"
   sodipodi:docname="Knight.svg"
   inkscape:version="1.3.2 (091e20e, 2023-11-25, custom)"
   xmlns:inkscape="http://www.inkscape.org/namespaces/inkscape"
   xmlns:sodipodi="http://sodipodi.sourceforge.net/DTD/sodipodi-0.dtd"
   xmlns="http://www.w3.org/2000/svg"
   xmlns:svg="http://www.w3.org/2000/svg">
  <defs
     id="defs6" />
  <g
     transform="matrix(0.1756509,0,0,0.1756509,-31.772787,-321.03522)"
     id="g60728">
    <path
       d="m 231.714,1837.494 c 37.532,4.162 54.642,26.149 53.008,94.792 h -75.886 c -0.893,-36.918 30.719,-21.425 24.183,-68.821"
       id="path60730"
       style="fill:#ffffff" />
    <path
       d="m 241.853,1864.379 c 1.371,9.71 -16.585,24.578 -25.311,30.02 -10.697,6.671 -10.052,14.486 -17.828,13.342 -4.119,-5.333 0.434,-5.904 -3.566,-3.335 -3.565,0 -14.274,3.335 -14.262,-13.342 0,-6.671 18.894,-40.026 18.894,-40.026 0,0 5.296,-6.345 5.703,-11.674 -2.589,-3.317 -1.068,-6.671 -1.068,-10.007 3.565,-3.335 12.661,8.339 12.661,8.339 h 4.274 c 0,0 3.681,-6.644 9.808,-10.007 3.565,0 3.565,10.007 3.565,10.007"
       id="path60732"
       style="fill:#ffffff" />
    <path
       d="m 190.861,1888.158 c 0,0.902 -0.731,1.634 -1.634,1.634 -0.902,0 -1.634,-0.732 -1.634,-1.634 0,-0.903 0.732,-1.635 1.634,-1.635 0.902,10e-4 1.634,0.733 1.634,1.635 z"
       id="path60734"
       style="fill:#f2f2f2" />
    <path
       d="m 208.617,1856.289 c -1.354,2.345 -3.085,3.88 -3.867,3.429 -0.781,-0.451 -0.317,-2.718 1.036,-5.063 1.354,-2.345 3.085,-3.88 3.867,-3.429 0.782,0.451 0.318,2.718 -1.036,5.063 z"
       id="path60736"
       style="fill:#f2f2f2" />
    <path
       d="m 240.049,1838.802 -0.98,3.596 1.797,0.327 c 10.137,1.56 20.668,7.303 28.026,21.226 7.358,13.923 9.55,35.835 7.926,68.336 l -0.164,0.027 h 5.72 v -0.027 c 1.644,-32.873 -2.864,-55.088 -10.622,-69.766 -7.758,-14.678 -18.92,-21.683 -30.027,-23.392 z"
       id="path60738"
       style="fill:#ffffff" />
    <path
       d="m 232.82,1840.391 c 32.206,3.067 50.609,24.541 49.075,88.959 h -70.546 c 0,-27.608 30.672,-19.939 24.538,-64.418"
       id="path60740"
       style="stroke:#000000;stroke-linecap:round" />
    <path
       d="m 238.953,1864.931 c 1.18,8.93 -17.031,22.604 -24.538,27.608 -9.202,6.135 -8.647,13.322 -15.336,12.271 -3.195,-2.896 4.335,-9.318 0,-9.203 -3.067,0 0.575,3.779 -3.067,6.135 -3.067,0 -12.278,3.068 -12.269,-12.27 0,-6.135 18.403,-36.811 18.403,-36.811 0,0 5.784,-5.835 6.134,-10.737 -2.227,-3.05 -1.534,-6.135 -1.534,-9.203 3.067,-3.067 9.202,7.669 9.202,7.669 h 6.135 c 0,0 2.397,-6.11 7.668,-9.203 3.067,0 3.067,9.203 3.067,9.203"
       id="path60742"
       style="stroke:#000000;stroke-linecap:round;stroke-linejoin:round" />
    <path
       d="m 194.479,1887.938 c 0,0.847 -0.687,1.534 -1.533,1.534 -0.847,0 -1.534,-0.687 -1.534,-1.534 0,-0.847 0.687,-1.534 1.534,-1.534 0.846,10e-4 1.533,0.687 1.533,1.534 z"
       id="path60744"
       style="fill:#ffffff;stroke:#ffffff;stroke-width:0.326;stroke-linecap:round;stroke-linejoin:round" />
    <path
       d="m 211.143,1858.03 c -1.271,2.201 -2.895,3.642 -3.628,3.218 -0.734,-0.423 -0.298,-2.551 0.972,-4.751 1.271,-2.201 2.895,-3.642 3.628,-3.218 0.734,0.422 0.299,2.549 -0.972,4.751 z"
       id="path60746"
       style="fill:#ffffff;stroke:#ffffff;stroke-width:0.326;stroke-linecap:round;stroke-linejoin:round" />
    <path
       d="m 239.712,1841.618 -0.92,3.375 1.687,0.307 c 9.513,1.464 19.396,6.854 26.302,19.92 6.906,13.066 9.892,32.666 8.366,63.167 l -0.153,1.534 h 5.368 v -1.534 c 1.542,-30.85 -3.617,-50.734 -10.897,-64.509 -7.28,-13.774 -17.756,-20.348 -28.18,-21.952 z"
       id="path60748"
       style="fill:#ffffff" />
  </g>
</svg>
