<?xml version="1.0" encoding="UTF-8" standalone="no"?>
<!-- Created with Inkscape (http://www.inkscape.org/) -->

<svg
   version="1.1"
   width="13.269724"
   height="17.312334"
   id="svg2"
   sodipodi:docname="Pawn.svg"
   inkscape:version="1.3.2 (091e20e, 2023-11-25, custom)"
   xmlns:inkscape="http://www.inkscape.org/namespaces/inkscape"
   xmlns:sodipodi="http://sodipodi.sourceforge.net/DTD/sodipodi-0.dtd"
   xmlns="http://www.w3.org/2000/svg"
   xmlns:svg="http://www.w3.org/2000/svg">
  <defs
     id="defs6" />
  <path
     d="m 6.6348613,0.43912727 c -1.189508,0 -2.155061,0.96556003 -2.155061,2.15541003 0,0.47689 0.158261,0.92252 0.42086,1.27962 -1.051622,0.60442 -1.767751,1.73156 -1.767751,3.03085 0,1.09589 0.507631,2.06865 1.296479,2.711 C 2.8135753,10.185997 0.43912727,12.604707 0.43912727,16.873207 H 12.830596 c 0,-4.2685 -2.37445,-6.68721 -3.9902617,-7.2571997 0.788848,-0.64235 1.2963027,-1.61511 1.2963027,-2.711 0,-1.29929 -0.7161277,-2.42626 -1.7677497,-3.03085 0.262597,-0.3571 0.42086,-0.80273 0.42086,-1.27962 1.75e-4,-1.18968 -0.965202,-2.15541003 -2.154886,-2.15541003 z"
     id="path3194"
     style="stroke:#ffffff;stroke-width:0.878255;stroke-linecap:round" />
</svg>
