<?xml version="1.0" encoding="UTF-8" standalone="no"?>
<!-- Created with Inkscape (http://www.inkscape.org/) -->

<svg
   version="1.1"
   width="20.970556"
   height="19.516582"
   id="svg2"
   sodipodi:docname="Queen.svg"
   inkscape:version="1.3.2 (091e20e, 2023-11-25, custom)"
   xmlns:inkscape="http://www.inkscape.org/namespaces/inkscape"
   xmlns:sodipodi="http://sodipodi.sourceforge.net/DTD/sodipodi-0.dtd"
   xmlns="http://www.w3.org/2000/svg"
   xmlns:svg="http://www.w3.org/2000/svg">
  <defs
     id="defs6" />
  <g
     transform="matrix(0.1756509,0,0,0.1756509,-209.27121,-54.136161)"
     id="g67023">
    <path
       d="m 1209.083,330.894 c 0,4.851 -3.932,8.784 -8.782,8.784 -4.85,0 -8.783,-3.933 -8.783,-8.784 0,-4.851 3.933,-8.784 8.783,-8.784 4.85,0 8.782,3.933 8.782,8.784 z"
       id="path67025"
       style="fill:#ffffff;stroke:#ffffff;stroke-width:0.2277;stroke-linecap:round;stroke-linejoin:round" />
    <path
       d="m 1233.907,319.879 c 0,4.851 -3.932,8.784 -8.783,8.784 -4.851,0 -8.782,-3.933 -8.782,-8.784 0,-4.851 3.932,-8.784 8.782,-8.784 4.851,0 8.783,3.933 8.783,8.784 z"
       id="path67027"
       style="fill:#ffffff;stroke:#ffffff;stroke-width:0.2277;stroke-linecap:round;stroke-linejoin:round" />
    <path
       d="m 1259.919,317.101 c 0,4.851 -3.933,8.784 -8.783,8.784 -4.85,0 -8.782,-3.933 -8.782,-8.784 0,-4.851 3.932,-8.784 8.782,-8.784 4.85,0 8.783,3.933 8.783,8.784 z"
       id="path67029"
       style="fill:#ffffff;stroke:#ffffff;stroke-width:0.2277;stroke-linecap:round;stroke-linejoin:round" />
    <path
       d="m 1286.182,322.152 c 0,4.851 -3.932,8.784 -8.782,8.784 -4.85,0 -8.783,-3.933 -8.783,-8.784 0,-4.851 3.933,-8.784 8.783,-8.784 4.85,0 8.782,3.933 8.782,8.784 z"
       id="path67031"
       style="fill:#ffffff;stroke:#ffffff;stroke-width:0.2277;stroke-linecap:round;stroke-linejoin:round" />
    <path
       d="m 1205.457,371.167 c 29.278,-5.167 70.566,-5.167 91.233,0 l 5.627,-44.874 -22.092,32.843 -1.01,-42.42 -18.188,43.475 -10.081,-49.4 -9.828,48.643 -18.187,-43.683 -0.253,46.163 -22.091,-33.601 z"
       id="path67033"
       style="fill:#ffffff;stroke:#ffffff;stroke-width:1;stroke-linejoin:round" />
    <path
       d="m 1205.457,371.167 c 0,6.89 4.156,7.647 7.602,14.537 3.444,5.167 4.454,2.688 2.732,11.299 -5.167,3.445 -5.167,8.612 -5.167,8.612 -5.167,5.167 1.723,10.612 1.723,10.612 22.389,3.445 54.813,3.445 77.203,0 0,0 5.166,-5.445 0,-10.612 0,0 1.722,-5.167 -3.445,-8.612 -1.722,-8.612 0.299,-6.89 3.743,-12.057 3.444,-6.89 6.591,-6.89 6.591,-13.78 -29.279,-5.166 -61.704,-5.166 -90.982,10e-4 z"
       id="path67035"
       style="fill:#ffffff;stroke:#ffffff;stroke-width:1;stroke-linejoin:round" />
    <path
       d="m 1310.678,330.738 c 0,4.851 -3.932,8.784 -8.782,8.784 -4.85,0 -8.783,-3.933 -8.783,-8.784 0,-4.852 3.933,-8.784 8.783,-8.784 4.85,0 8.782,3.933 8.782,8.784 z"
       id="path67037"
       style="fill:#ffffff;stroke:#ffffff;stroke-width:0.2277;stroke-linecap:round;stroke-linejoin:round" />
    <g
       transform="matrix(3.067229,0,0,3.067558,-1332.787,-2735.3764)"
       id="g67039">
      <path
         d="m 827.96,999.625 c 0,1.104 -0.896,2 -2,2 -1.104,0 -2,-0.896 -2,-2 0,-1.105 0.896,-2 2,-2 1.104,0 2,0.895 2,2 z"
         id="path67041"
         style="stroke:#000000;stroke-width:0.326;stroke-linecap:round;stroke-linejoin:round" />
      <path
         d="m 844.46,995.125 c 0,1.105 -0.896,2 -2,2 -1.104,0 -2,-0.895 -2,-2 0,-1.105 0.896,-2 2,-2 1.104,0 2,0.895 2,2 z"
         id="path67043"
         style="stroke:#000000;stroke-width:0.326;stroke-linecap:round;stroke-linejoin:round" />
      <path
         d="m 860.96,999.625 c 0,1.104 -0.896,2 -2,2 -1.104,0 -2,-0.896 -2,-2 0,-1.105 0.896,-2 2,-2 1.104,0 2,0.895 2,2 z"
         id="path67045"
         style="stroke:#000000;stroke-width:0.326;stroke-linecap:round;stroke-linejoin:round" />
      <path
         d="m 835.96,996.125 c 0,1.104 -0.896,2 -2,2 -1.104,0 -2,-0.895 -2,-2 0,-1.105 0.896,-2 2,-2 1.104,0 2,0.895 2,2 z"
         id="path67047"
         style="stroke:#000000;stroke-width:0.326;stroke-linecap:round;stroke-linejoin:round" />
      <path
         d="m 852.96,996.625 c 0,1.105 -0.895,2 -2,2 -1.104,0 -2,-0.896 -2,-2 0,-1.104 0.896,-2 2,-2 1.105,0 2,0.896 2,2 z"
         id="path67049"
         style="stroke:#000000;stroke-width:0.326;stroke-linecap:round;stroke-linejoin:round" />
      <path
         d="m 828.96,1013.625 c 8.5,-1.5 21,-1.5 27,0 l 2,-12 -7,11 v -14 l -5.5,13.5 -3,-15 -3,15 -5.5,-14 v 14.5 l -7,-11 z"
         id="path67051"
         style="stroke:#000000;stroke-width:0.326;stroke-linejoin:round" />
      <path
         d="m 828.96,1013.625 c 0,2 1.5,2 2.5,4 1,1.5 1,1 0.5,3.5 -1.5,1 -1.5,2.5 -1.5,2.5 -1.5,1.5 0.5,2.5 0.5,2.5 6.5,1 16.5,1 23,0 0,0 1.5,-1 0,-2.5 0,0 0.5,-1.5 -1,-2.5 -0.5,-2.5 -0.5,-2 0.5,-3.5 1,-2 2.5,-2 2.5,-4 -8.5,-1.5 -18.5,-1.5 -27,0 z"
         id="path67053"
         style="stroke:#000000;stroke-width:0.326;stroke-linejoin:round" />
      <path
         d="m 831.46,1017.625 c 3.5,-1 18.5,-1 22,0"
         id="path67055"
         style="fill:none;stroke:#ffffff;stroke-width:0.326;stroke-linecap:round;stroke-linejoin:round" />
      <path
         d="m 831.96,1021.125 c 6,-1 15,-1 21,0"
         id="path67057"
         style="fill:none;stroke:#ffffff;stroke-width:0.326;stroke-linecap:round;stroke-linejoin:round" />
      <path
         d="m 830.46,1023.625 c 5,-1 18.5,-1 23.5,0"
         id="path67059"
         style="fill:none;stroke:#ffffff;stroke-width:0.326;stroke-linecap:round;stroke-linejoin:round" />
    </g>
  </g>
</svg>
