<?xml version="1.0" encoding="UTF-8" standalone="no"?>
<!-- Created with Inkscape (http://www.inkscape.org/) -->

<svg
   version="1.1"
   width="18.805195"
   height="19.262932"
   id="svg2"
   sodipodi:docname="King.svg"
   inkscape:version="1.3.2 (091e20e, 2023-11-25, custom)"
   xmlns:inkscape="http://www.inkscape.org/namespaces/inkscape"
   xmlns:sodipodi="http://sodipodi.sourceforge.net/DTD/sodipodi-0.dtd"
   xmlns="http://www.w3.org/2000/svg"
   xmlns:svg="http://www.w3.org/2000/svg">
  <defs
     id="defs6" />
  <g
     transform="matrix(0.1756509,0,0,0.1756509,-124.94928,-310.84518)"
     id="g82263">
    <path
       d="m 764.824,1790.062 v -16.386"
       id="path80321"
       style="fill:none;stroke:#ffffff;stroke-width:8;stroke-linecap:round" />
    <path
       d="m 757.029,1779.68 h 15.337"
       id="path80323"
       style="fill:none;stroke:#ffffff;stroke-width:8;stroke-linecap:round" />
    <path
       d="m 764.978,1790.95 v -17.255"
       id="path80300"
       style="fill:none;stroke:#000000;stroke-width:5;stroke-linecap:round" />
    <path
       d="m 764.978,1831.98 c 0,0 13.803,-23.007 9.201,-32.21 0,0 -3.066,-7.669 -9.201,-7.669 -6.135,0 -9.202,7.669 -9.202,7.669 -4.601,9.203 9.202,32.21 9.202,32.21"
       id="path80302"
       style="fill:#ffffff;stroke:#000000;stroke-width:5" />
    <path
       d="m 731.238,1868.79 c 16.869,10.736 47.542,10.736 64.411,0 v -21.473 c 0,0 27.605,-13.805 18.403,-32.21 -12.269,-19.939 -41.407,-10.736 -49.075,12.271 v 10.736 -10.736 c -10.735,-23.007 -39.874,-32.21 -49.076,-12.271 -9.201,18.405 15.337,30.676 15.337,30.676 z"
       id="path80304"
       style="fill:#ffffff;stroke:#000000;stroke-width:5;stroke-linecap:round;stroke-linejoin:round" />
    <path
       d="m 757.31,1779.831 h 15.336"
       id="path80306"
       style="fill:none;stroke:#000000;stroke-width:5;stroke-linecap:round" />
    <path
       d="m 731.238,1845.783 c 16.869,-7.669 47.542,-7.669 64.411,1.534"
       id="path80308"
       style="fill:none;stroke:#000000;stroke-width:5;stroke-linecap:round" />
    <path
       d="m 731.238,1868.79 c 16.869,-7.669 47.542,-7.669 64.411,0"
       id="path80310"
       style="fill:none;stroke:#000000;stroke-width:5;stroke-linecap:round;stroke-linejoin:round" />
    <path
       d="m 731.238,1858.054 c 16.869,-6.136 47.542,-6.136 64.411,0"
       id="path80312"
       style="fill:none;stroke:#000000;stroke-width:5;stroke-linecap:round;stroke-linejoin:round" />
  </g>
</svg>
