<?xml version="1.0" encoding="UTF-8" standalone="no"?>
<!-- Created with Inkscape (http://www.inkscape.org/) -->

<svg
   version="1.1"
   width="18.257805"
   height="18.377476"
   id="svg2"
   sodipodi:docname="Knight.svg"
   inkscape:version="1.3.2 (091e20e, 2023-11-25, custom)"
   xmlns:inkscape="http://www.inkscape.org/namespaces/inkscape"
   xmlns:sodipodi="http://sodipodi.sourceforge.net/DTD/sodipodi-0.dtd"
   xmlns="http://www.w3.org/2000/svg"
   xmlns:svg="http://www.w3.org/2000/svg">
  <defs
     id="defs6" />
  <g
     transform="matrix(0.1756509,0,0,0.1756509,-60.602721,-320.82373)"
     id="g60673">
    <path
       d="m 395.848,1836.291 c 37.531,4.161 54.641,26.149 53.007,94.791 H 372.97 c -0.893,-36.918 30.719,-21.425 24.182,-68.82"
       id="path60675" />
    <path
       d="m 405.985,1863.176 c 1.371,9.71 -16.585,24.578 -25.311,30.02 -10.697,6.671 -10.052,14.485 -17.828,13.342 -4.119,-5.333 0.434,-5.903 -3.565,-3.335 -3.565,0 -14.274,3.335 -14.263,-13.343 0,-6.671 18.894,-40.026 18.894,-40.026 0,0 5.295,-6.344 5.703,-11.674 -2.589,-3.316 -1.068,-6.671 -1.068,-10.007 3.565,-3.335 12.661,8.339 12.661,8.339 h 4.274 c 0,0 3.68,-6.645 9.807,-10.007 3.565,0 3.565,10.007 3.565,10.007"
       id="path60677" />
    <path
       d="m 354.994,1886.955 c 0,0.902 -0.732,1.634 -1.634,1.634 -0.903,0 -1.634,-0.731 -1.634,-1.634 0,-0.903 0.731,-1.635 1.634,-1.635 0.902,10e-4 1.634,0.733 1.634,1.635 z"
       id="path60679"
       style="fill:#f2f2f2" />
    <path
       d="m 372.75,1855.085 c -1.354,2.346 -3.084,3.881 -3.866,3.43 -0.782,-0.451 -0.318,-2.719 1.036,-5.063 1.354,-2.345 3.084,-3.88 3.866,-3.429 0.782,0.451 0.318,2.717 -1.036,5.062 z"
       id="path60681"
       style="fill:#f2f2f2" />
    <path
       d="m 404.182,1837.599 -0.98,3.595 1.798,0.327 c 10.136,1.56 20.667,7.303 28.025,21.226 7.358,13.923 9.551,35.835 7.926,68.336 l -0.164,0.027 h 5.72 v -0.027 c 1.644,-32.873 -2.864,-55.088 -10.622,-69.766 -7.757,-14.678 -18.92,-21.683 -30.027,-23.392 z"
       id="path60683" />
    <path
       d="m 396.952,1839.188 c 32.206,3.067 50.609,24.54 49.076,88.959 h -70.547 c 0,-27.607 30.673,-19.938 24.538,-64.419"
       id="path60685"
       style="fill:#ffffff;stroke:#000000;stroke-linecap:round" />
    <path
       d="m 403.087,1863.728 c 1.179,8.931 -17.032,22.604 -24.538,27.608 -9.202,6.135 -8.647,13.322 -15.336,12.271 -3.195,-2.896 4.335,-9.318 0,-9.203 -3.067,0 0.574,3.778 -3.067,6.136 -3.067,0 -12.279,3.067 -12.269,-12.271 0,-6.135 18.403,-36.811 18.403,-36.811 0,0 5.785,-5.835 6.135,-10.736 -2.227,-3.051 -1.534,-6.136 -1.534,-9.203 3.067,-3.067 9.202,7.669 9.202,7.669 h 6.134 c 0,0 2.398,-6.11 7.668,-9.202 3.067,0 3.067,9.202 3.067,9.202"
       id="path60687"
       style="fill:#ffffff;stroke:#000000;stroke-linecap:round;stroke-linejoin:round" />
    <path
       d="m 358.612,1886.735 c 0,0.848 -0.687,1.534 -1.534,1.534 -0.847,0 -1.534,-0.687 -1.534,-1.534 0,-0.847 0.687,-1.533 1.534,-1.533 0.847,-10e-4 1.534,0.686 1.534,1.533 z"
       id="path60689"
       style="stroke:#000000;stroke-width:0.326;stroke-linecap:round;stroke-linejoin:round" />
    <path
       d="m 375.276,1856.826 c -1.271,2.2 -2.896,3.642 -3.629,3.218 -0.733,-0.424 -0.298,-2.551 0.972,-4.752 1.271,-2.2 2.896,-3.642 3.629,-3.218 0.733,0.424 0.299,2.551 -0.972,4.752 z"
       id="path60691"
       style="stroke:#000000;stroke-width:0.326;stroke-linecap:round;stroke-linejoin:round" />
    <path
       d="m 403.845,1840.415 -0.92,3.374 1.688,0.307 c 9.513,1.464 19.396,6.854 26.301,19.92 6.906,13.066 9.892,32.666 8.367,63.167 l -0.153,1.533 h 5.367 v -1.533 c 1.542,-30.851 -3.617,-50.734 -10.896,-64.509 -7.28,-13.775 -17.757,-20.349 -28.181,-21.952 z"
       id="path60693" />
  </g>
</svg>
