<?xml version="1.0" encoding="UTF-8" standalone="no"?>
<!-- Created with Inkscape (http://www.inkscape.org/) -->

<svg
   version="1.1"
   width="13.269728"
   height="17.312325"
   id="svg2"
   sodipodi:docname="Pawn.svg"
   inkscape:version="1.3.2 (091e20e, 2023-11-25, custom)"
   xmlns:inkscape="http://www.inkscape.org/namespaces/inkscape"
   xmlns:sodipodi="http://sodipodi.sourceforge.net/DTD/sodipodi-0.dtd"
   xmlns="http://www.w3.org/2000/svg"
   xmlns:svg="http://www.w3.org/2000/svg">
  <defs
     id="defs6" />
  <path
     d="m 6.6348653,0.43912727 c -1.189508,0 -2.155061,0.96538003 -2.155061,2.15524003 0,0.47688 0.158438,0.9227 0.42086,1.27961 -1.051622,0.60459 -1.767751,1.73158 -1.767751,3.03104 0,1.09589 0.507632,2.06847 1.296304,2.711 C 2.8133963,10.185997 0.43912727,12.604707 0.43912727,16.873197 H 12.8306 c 0,-4.26866 -2.37445,-6.6872 -3.9900867,-7.2571797 0.788849,-0.64237 1.2963037,-1.61495 1.2963037,-2.711 0,-1.29929 -0.7161287,-2.42627 -1.7677507,-3.03104 0.262599,-0.35691 0.42086,-0.80273 0.42086,-1.27961 0,-1.18986 -0.965554,-2.15524003 -2.155061,-2.15524003 z"
     id="path3444"
     style="fill:#ffffff;stroke:#000000;stroke-width:0.878255;stroke-linecap:round" />
</svg>
