<?xml version="1.0" encoding="UTF-8" standalone="no"?>
<!-- Created with Inkscape (http://www.inkscape.org/) -->

<svg
   version="1.1"
   width="21.534203"
   height="20.10001"
   id="svg2"
   sodipodi:docname="Queen.svg"
   inkscape:version="1.3.2 (091e20e, 2023-11-25, custom)"
   xmlns:inkscape="http://www.inkscape.org/namespaces/inkscape"
   xmlns:sodipodi="http://sodipodi.sourceforge.net/DTD/sodipodi-0.dtd"
   xmlns="http://www.w3.org/2000/svg"
   xmlns:svg="http://www.w3.org/2000/svg">
  <defs
     id="defs6" />
  <g
     transform="matrix(0.1756509,0,0,0.1756509,-81.334306,-313.03804)"
     id="g80246">
    <path
       d="m 477.927,1850.391 c 29.278,-5.167 72.082,-3.021 92.748,2.147 0,0 10.279,-44.535 6.385,-50.369 -3.896,-5.834 -21.965,27.034 -21.965,27.034 l -3.41,-42.42 -16.166,39.813 c 0,0 -5.767,-35.353 -11.218,-35.132 -5.451,0.222 -10.586,36.016 -10.586,36.016 0,0 -8.621,-33.79 -15.662,-33.454 -7.167,0.336 -4.419,35.809 -4.419,35.809 0,0 -16.775,-31.037 -20.702,-25.898 -3.927,5.14 4.995,46.454 4.995,46.454 z"
       id="path80248"
       style="fill:#ffffff;stroke:#ffffff;stroke-width:1;stroke-linejoin:round" />
    <path
       d="m 476.79,1845.21 c 0,7.295 1.277,11.128 7.329,17.286 1.759,2.693 4.383,3.225 2.24,8.555 -5.668,3.648 -5.795,11.14 -5.795,11.14 -1.754,5.219 2.017,11.11 2.017,11.11 24.563,3.647 56.479,3.66 82.178,0.379 0,0 3.396,-4.503 2.146,-9.975 0,0 0.248,-8.375 -4.158,-12.148 -1.006,-6.72 1.085,-6.411 3.728,-10.115 4.031,-6.158 5.337,-7.295 5.337,-14.59 -32.123,-5.471 -62.899,-7.112 -95.022,-1.642 z"
       id="path80250"
       style="fill:#ffffff;stroke:#ffffff;stroke-width:1;stroke-linejoin:round" />
    <path
       d="m 585.547,1806.806 c 0,5.827 -4.724,10.552 -10.55,10.552 -5.827,0 -10.551,-4.725 -10.551,-10.552 0,-5.827 4.724,-10.552 10.551,-10.552 5.826,0 10.55,4.725 10.55,10.552 z"
       id="path80252"
       style="fill:#ffffff;stroke:#ffffff;stroke-width:0.1896;stroke-linecap:round;stroke-linejoin:round" />
    <path
       d="m 484.242,1806.697 c 0,5.827 -4.724,10.552 -10.551,10.552 -5.827,0 -10.551,-4.725 -10.551,-10.552 0,-5.827 4.724,-10.552 10.551,-10.552 5.827,0 10.551,4.725 10.551,10.552 z"
       id="path80254"
       style="fill:#ffffff;stroke:#ffffff;stroke-width:0.1896;stroke-linecap:round;stroke-linejoin:round" />
    <path
       d="m 479.982,1806.868 c 0,3.389 -2.746,6.135 -6.135,6.135 -3.388,0 -6.134,-2.746 -6.134,-6.135 0,-3.389 2.746,-6.135 6.134,-6.135 3.389,0 6.135,2.746 6.135,6.135 z"
       id="path80256"
       style="fill:#ffffff;stroke:#000000;stroke-width:1.63;stroke-linecap:round;stroke-linejoin:round" />
    <path
       d="m 534.876,1792.807 c 0,5.827 -4.724,10.552 -10.551,10.552 -5.827,0 -10.551,-4.725 -10.551,-10.552 0,-5.827 4.724,-10.552 10.551,-10.552 5.827,0 10.551,4.725 10.551,10.552 z"
       id="path80258"
       style="fill:#ffffff;stroke:#ffffff;stroke-width:0.1896;stroke-linecap:round;stroke-linejoin:round" />
    <path
       d="m 530.592,1793.064 c 0,3.388 -2.746,6.135 -6.135,6.135 -3.388,0 -6.134,-2.747 -6.134,-6.135 0,-3.389 2.746,-6.136 6.134,-6.136 3.388,0 6.135,2.747 6.135,6.136 z"
       id="path80260"
       style="fill:#ffffff;stroke:#000000;stroke-width:1.63;stroke-linecap:round;stroke-linejoin:round" />
    <path
       d="m 581.201,1806.868 c 0,3.389 -2.746,6.135 -6.135,6.135 -3.388,0 -6.134,-2.746 -6.134,-6.135 0,-3.389 2.746,-6.135 6.134,-6.135 3.389,0 6.135,2.746 6.135,6.135 z"
       id="path80262"
       style="fill:#ffffff;stroke:#000000;stroke-width:1.63;stroke-linecap:round;stroke-linejoin:round" />
    <path
       d="m 508.864,1796.09 c 0,5.827 -4.724,10.552 -10.551,10.552 -5.826,0 -10.55,-4.725 -10.55,-10.552 0,-5.827 4.724,-10.552 10.55,-10.552 5.827,0 10.551,4.725 10.551,10.552 z"
       id="path80264"
       style="fill:#ffffff;stroke:#ffffff;stroke-width:0.1896;stroke-linecap:round;stroke-linejoin:round" />
    <path
       d="m 504.52,1796.131 c 0,3.389 -2.746,6.135 -6.135,6.135 -3.388,0 -6.135,-2.746 -6.135,-6.135 0,-3.389 2.747,-6.135 6.135,-6.135 3.389,0 6.135,2.747 6.135,6.135 z"
       id="path80266"
       style="fill:#ffffff;stroke:#000000;stroke-width:1.63;stroke-linecap:round;stroke-linejoin:round" />
    <path
       d="m 561.139,1797.606 c 0,5.827 -4.724,10.551 -10.551,10.551 -5.826,0 -10.55,-4.724 -10.55,-10.551 0,-5.828 4.724,-10.552 10.55,-10.552 5.828,0 10.551,4.724 10.551,10.552 z"
       id="path80268"
       style="fill:#ffffff;stroke:#ffffff;stroke-width:0.1896;stroke-linecap:round;stroke-linejoin:round" />
    <path
       d="m 556.663,1797.664 c 0,3.389 -2.746,6.136 -6.135,6.136 -3.388,0 -6.134,-2.747 -6.134,-6.136 0,-3.388 2.746,-6.135 6.134,-6.135 3.389,10e-4 6.135,2.748 6.135,6.135 z"
       id="path80270"
       style="fill:#ffffff;stroke:#000000;stroke-width:1.63;stroke-linecap:round;stroke-linejoin:round" />
    <path
       d="m 483.05,1849.813 c 26.071,-4.601 64.412,-4.601 82.815,0 l 6.134,-36.811 -21.471,33.743 V 1803.8 l -16.869,41.412 -9.202,-46.014 -9.201,46.014 -16.87,-42.946 v 44.479 l -21.471,-33.743 z"
       id="path80272"
       style="fill:#ffffff;stroke:#000000;stroke-width:5;stroke-linejoin:round" />
    <path
       d="m 483.05,1849.813 c 0,6.136 4.601,6.136 7.668,12.271 3.067,4.602 3.067,3.067 1.533,10.736 -4.601,3.067 -4.601,7.669 -4.601,7.669 -4.601,4.602 1.534,7.669 1.534,7.669 19.937,3.067 50.609,3.067 70.546,0 0,0 4.601,-3.067 0,-7.669 0,0 1.533,-4.602 -3.067,-7.669 -1.533,-7.669 -1.533,-6.135 1.534,-10.736 3.066,-6.135 7.668,-6.135 7.668,-12.271 -26.071,-4.601 -56.744,-4.601 -82.815,0 z"
       id="path80274"
       style="fill:#ffffff;stroke:#000000;stroke-width:5;stroke-linejoin:round" />
    <path
       d="m 490.718,1862.083 c 10.735,-3.067 56.744,-3.067 67.479,0"
       id="path80276"
       style="fill:none;stroke:#000000;stroke-width:5;stroke-linecap:round;stroke-linejoin:round" />
    <path
       d="m 492.251,1872.82 c 18.404,-3.067 46.009,-3.067 64.412,0"
       id="path80278"
       style="fill:none;stroke:#000000;stroke-width:5;stroke-linecap:round;stroke-linejoin:round" />
    <path
       d="m 487.65,1880.489 c 15.336,-3.067 56.744,-3.067 72.08,0"
       id="path80280"
       style="fill:none;stroke:#000000;stroke-width:5;stroke-linecap:round;stroke-linejoin:round" />
  </g>
</svg>
